<?xml version="1.0" standalone="yes"?>

<svg version="1.1" viewBox="0.0 0.0 96.0 96.0" fill="none" stroke="none" stroke-linecap="square" stroke-miterlimit="10" xmlns="http://www.w3.org/2000/svg" xmlns:xlink="http://www.w3.org/1999/xlink"><clipPath id="p.0"><path d="m0 0l96.0 0l0 96.0l-96.0 0l0 -96.0z" clip-rule="nonzero"></path></clipPath><g clip-path="url(#p.0)"><path fill="#000000" fill-opacity="0.0" d="m0 0l96.0 0l0 96.0l-96.0 0z" fill-rule="nonzero"></path><path fill="#000000" fill-opacity="0.0" d="m10.614173 22.871641l0 0c0 -6.882679 5.5795126 -12.462193 12.462192 -12.462193l49.847275 0l0 0c3.3051758 0 6.474983 1.3129778 8.812096 3.6500912c2.33712 2.3371143 3.650093 5.506922 3.650093 8.812101l0 50.256714c0 6.882683 -5.5795135 12.462196 -12.462189 12.462196l-49.847275 0l0 0c-6.882679 0 -12.462192 -5.5795135 -12.462192 -12.462196z" fill-rule="nonzero"></path><path stroke="#d35400" stroke-width="4.0" stroke-linejoin="round" stroke-linecap="butt" d="m10.614173 22.871641l0 0c0 -6.882679 5.5795126 -12.462193 12.462192 -12.462193l49.847275 0l0 0c3.3051758 0 6.474983 1.3129778 8.812096 3.6500912c2.33712 2.3371143 3.650093 5.506922 3.650093 8.812101l0 50.256714c0 6.882683 -5.5795135 12.462196 -12.462189 12.462196l-49.847275 0l0 0c-6.882679 0 -12.462192 -5.5795135 -12.462192 -12.462196z" fill-rule="nonzero"></path><path fill="#000000" fill-opacity="0.0" d="m15.699131 4.770638l45.732285 0l0 60.503937l-45.732285 0z" fill-rule="nonzero"></path><path fill="#d35400" d="m18.402256 18.551262q3.234375 0.171875 6.109375 0.171875l1.578125 -0.03125q7.125 -0.140625 7.9375 -0.140625q9.890625 0 14.796875 4.484375q4.921875 4.46875 4.921875 13.046875q0 5.515625 -2.40625 9.65625q-2.390625 4.140625 -6.953125 6.40625q-4.546875 2.265625 -10.796875 2.265625q-0.75 0 -3.484375 -0.0625q-2.734375 -0.078125 -3.921875 -0.078125q-5.21875 0 -7.78125 0.140625l0 -1.015625q1.671875 -0.078125 2.4375 -0.390625q0.78125 -0.328125 1.0625 -1.1875q0.28125 -0.875 0.28125 -2.78125l0 -25.125q0 -1.90625 -0.28125 -2.765625q-0.28125 -0.875 -1.0625 -1.1875q-0.765625 -0.328125 -2.4375 -0.390625l0 -1.015625zm11.84375 30.59375q0 1.828125 0.296875 2.734375q0.296875 0.90625 1.078125 1.265625q0.796875 0.34375 2.40625 0.34375q4.1875 0 6.671875 -1.953125q2.484375 -1.96875 3.5625 -5.734375q1.078125 -3.78125 1.078125 -9.515625q0 -5.765625 -1.15625 -9.46875q-1.15625 -3.703125 -3.65625 -5.53125q-2.484375 -1.828125 -6.546875 -1.828125q-1.578125 0 -2.359375 0.359375q-0.78125 0.359375 -1.078125 1.28125q-0.296875 0.90625 -0.296875 2.71875l0 25.328125z" fill-rule="nonzero"></path><path fill="#000000" fill-opacity="0.0" d="m47.119495 29.277866l40.598423 0l0 61.952755l-40.598423 0z" fill-rule="nonzero"></path><path fill="#d35400" d="m52.244495 65.589745q0.328125 5.65625 2.515625 9.1875q2.1875 3.515625 6.703125 3.515625q1.78125 0 3.2031212 -0.625q1.421875 -0.625 2.25 -1.90625q0.828125 -1.296875 0.828125 -3.125q0 -1.984375 -0.921875 -3.546875q-0.921875 -1.578125 -2.5 -2.875q-1.5624962 -1.296875 -4.187496 -3.0000038q-3.0625 -1.984375 -4.859375 -3.4375q-1.796875 -1.46875 -2.96875 -3.46875q-1.171875 -2.0 -1.171875 -4.640625q0 -3.078125 1.546875 -5.15625q1.5625 -2.09375 4.125 -3.109375q2.578125 -1.015625 5.671875 -1.015625q1.8281212 0 3.1718712 0.28125q1.359375 0.265625 2.265625 0.671875q0.90625 0.40625 1.96875 1.03125q1.203125 0.703125 1.703125 0.703125q0.46875 0 0.71875 -0.53125q0.25 -0.53125 0.390625 -1.6875l1.15625 0q-0.234375 3.390625 -0.234375 11.546875l-1.171875 0q-0.171875 -2.734375 -1.21875 -5.203125q-1.046875 -2.484375 -2.953125 -4.03125q-1.890625 -1.546875 -4.437496 -1.546875q-1.609375 0 -2.890625 0.625q-1.265625 0.609375 -1.96875 1.796875q-0.703125 1.171875 -0.703125 2.71875q0 2.53125 1.5 4.140625q1.515625 1.609375 3.9375 3.25q2.4374962 1.640625 3.2656212 2.21875q2.96875 1.96875 4.703125 3.4375q1.734375 1.453125 2.8125 3.4062538q1.09375 1.953125 1.09375 4.53125q0 3.234375 -1.6875 5.46875q-1.671875 2.21875 -4.515625 3.328125q-2.84375 1.09375 -6.359371 1.09375q-2.84375 0 -4.71875 -0.515625q-1.859375 -0.5 -3.4375 -1.359375q-1.09375 -0.71875 -1.703125 -0.71875q-0.484375 0 -0.734375 0.53125q-0.234375 0.53125 -0.390625 1.6875l-1.15625 0q0.203125 -3.15625 0.203125 -13.671875l1.15625 0z" fill-rule="nonzero"></path></g></svg>

